# xmcd
#
# Track frame offsets: 
#        150
#        22828
#        49417
#        71975
#        97113
#        108047
#        126797
#        144346
#        166150
#
# Disc length: 2514 seconds
#
# Revision: 0
# Processed by: cddbd v1.5.2PL0 Copyright (c) Steve Scherf et al.
# Submitted via: ExactAudioCopy v1.0b1
#
DISCID=7609d009
DTITLE=Evangelista - In Animal Tongue
DYEAR=2011
DGENRE=Avantgarde
TTITLE0=Artificial Lamb
TTITLE1=In Animal Tongue
TTITLE2=Black Jesus
TTITLE3=Bells Ring Fire
TTITLE4=Hands Of Leather
TTITLE5=Tunnel To The Stars
TTITLE6=Die Alone
TTITLE7=Enter The Prince
TTITLE8=Hatching
EXTD=
EXTT0=
EXTT1=
EXTT2=
EXTT3=
EXTT4=
EXTT5=
EXTT6=
EXTT7=
EXTT8=
PLAYORDER=
